<svg width="600" height="400" viewBox="0 0 600 400" fill="none" xmlns="http://www.w3.org/2000/svg">
  <rect width="600" height="400" fill="#F8F9FA"/>
  <rect x="50" y="50" width="500" height="300" rx="10" fill="white" stroke="#E9ECEF" stroke-width="2"/>
  
  <!-- Job Posting -->
  <rect x="70" y="70" width="300" height="260" rx="5" fill="#F8F9FA" stroke="#E9ECEF"/>
  <rect x="90" y="90" width="260" height="20" rx="3" fill="#E9ECEF"/>
  <rect x="90" y="120" width="200" height="15" rx="3" fill="#E9ECEF"/>
  <rect x="90" y="145" width="260" height="15" rx="3" fill="#E9ECEF"/>
  <rect x="90" y="170" width="260" height="15" rx="3" fill="#E9ECEF"/>
  <rect x="90" y="195" width="180" height="15" rx="3" fill="#E9ECEF"/>
  <rect x="90" y="220" width="220" height="15" rx="3" fill="#E9ECEF"/>
  <rect x="90" y="245" width="240" height="15" rx="3" fill="#E9ECEF"/>
  <rect x="90" y="270" width="200" height="15" rx="3" fill="#E9ECEF"/>
  <rect x="90" y="295" width="100" height="15" rx="3" fill="#E9ECEF"/>
  
  <!-- Analysis Results -->
  <rect x="390" y="70" width="160" height="260" rx="5" fill="#4361EE" stroke="#3A56D4"/>
  <rect x="400" y="90" width="140" height="20" rx="3" fill="white" fill-opacity="0.2"/>
  <rect x="400" y="120" width="140" height="60" rx="3" fill="white" fill-opacity="0.2"/>
  <rect x="400" y="190" width="140" height="40" rx="3" fill="white" fill-opacity="0.2"/>
  <rect x="400" y="240" width="140" height="40" rx="3" fill="white" fill-opacity="0.2"/>
  <rect x="400" y="290" width="140" height="20" rx="3" fill="white" fill-opacity="0.2"/>
  
  <!-- Arrows connecting job posting to analysis -->
  <path d="M370 120L390 120" stroke="#333333" stroke-width="2" stroke-linecap="round"/>
  <path d="M370 200L390 200" stroke="#333333" stroke-width="2" stroke-linecap="round"/>
  <path d="M370 280L390 280" stroke="#333333" stroke-width="2" stroke-linecap="round"/>
  
  <!-- AI Symbol -->
  <circle cx="470" cy="40" r="15" fill="#4361EE"/>
  <path d="M470 30V50" stroke="white" stroke-width="2" stroke-linecap="round"/>
  <path d="M460 35L470 30L480 35" stroke="white" stroke-width="2" stroke-linecap="round" stroke-linejoin="round"/>
  <path d="M460 45L470 50L480 45" stroke="white" stroke-width="2" stroke-linecap="round" stroke-linejoin="round"/>
</svg>
